<svg width="624" height="98" viewBox="0 0 624 98" fill="none" xmlns="http://www.w3.org/2000/svg">
<path d="M91 1C88.5075 27.7158 75.7626 49.462 48.7422 59.7671C40.1487 63.0432 31.2517 64.9622 22.128 65.9535C21.5124 66.0216 20.901 66.1067 19.9989 66.2216C20.7599 64.4005 21.4012 62.7624 22.1237 61.1584C24.8557 55.0953 28.0964 49.3514 32.8036 44.5392C36.0315 41.2375 39.7426 38.6931 44.1804 37.272C44.3642 37.2125 44.531 37.0933 44.6721 36.9189C38.3146 37.6635 32.1409 39.059 26.2751 41.6672C21.4397 43.8201 17.0916 46.6496 13.7782 50.8193C7.29675 58.9714 7.53617 69.3446 14.3725 77.3776C19.0668 82.8918 25.1593 85.9212 32.2649 87.0019C41.3202 88.3805 49.8239 86.3637 57.8402 82.3217C71.1366 75.6161 78.8964 64.7707 81.359 50.1683C81.5942 48.7812 81.6412 47.3559 81.7011 45.9475C81.7566 44.5775 81.7139 43.2074 81.9277 41.8034C82.15 43.5223 82.4706 45.2327 82.5818 46.9559C83.4967 61.2903 79.0204 73.71 68.7296 83.8023C61.1151 91.2695 51.8205 95.8349 41.2774 97.5325C24.5222 100.226 9.14798 91.0908 2.94869 75.0502C-4.52038 55.7208 2.49978 35.4127 20.6103 24.1715C27.4851 19.904 34.9328 17.1554 42.9619 15.8322C58.644 13.2495 73.689 8.51394 88.2467 2.19134C89.1103 1.81266 89.9867 1.43824 91 1Z" fill="url(#paint0_linear_41_36)"/>
<path d="M116.382 28.5487V43.9401H137.05V53.7027H116.382V69.9736H139.689V80H104.069V18.5223H139.689V28.5487H116.382ZM174.713 80.6157C170.433 80.6157 166.563 79.8827 163.104 78.4169C159.703 76.951 157.006 74.8402 155.012 72.0844C153.019 69.3286 151.992 66.0744 151.934 62.3219H165.126C165.302 64.8431 166.182 66.8367 167.765 68.3025C169.407 69.7684 171.635 70.5013 174.449 70.5013C177.322 70.5013 179.58 69.827 181.221 68.4784C182.863 67.0712 183.684 65.2536 183.684 63.0255C183.684 61.2078 183.127 59.7127 182.013 58.54C180.899 57.3673 179.492 56.4585 177.791 55.8135C176.15 55.1099 173.863 54.3477 170.931 53.5268C166.944 52.3541 163.69 51.2107 161.169 50.0967C158.706 48.924 156.566 47.1943 154.748 44.9076C152.989 42.5622 152.11 39.4546 152.11 35.5848C152.11 31.9495 153.019 28.7833 154.836 26.0861C156.654 23.3889 159.204 21.3368 162.488 19.9295C165.771 18.4637 169.524 17.7308 173.746 17.7308C180.078 17.7308 185.209 19.2846 189.137 22.3922C193.124 25.4411 195.323 29.7214 195.733 35.233H182.189C182.072 33.1222 181.163 31.3925 179.462 30.0439C177.821 28.6367 175.622 27.9331 172.866 27.9331C170.462 27.9331 168.527 28.5487 167.061 29.78C165.654 31.0114 164.951 32.7997 164.951 35.145C164.951 36.7868 165.478 38.1647 166.534 39.2787C167.648 40.3342 168.996 41.2137 170.579 41.9173C172.221 42.5622 174.508 43.3245 177.44 44.204C181.427 45.3767 184.681 46.5493 187.202 47.722C189.723 48.8947 191.893 50.6537 193.71 52.9991C195.528 55.3444 196.437 58.4227 196.437 62.2339C196.437 65.5174 195.587 68.5664 193.886 71.3808C192.186 74.1952 189.694 76.4526 186.411 78.153C183.127 79.7948 179.228 80.6157 174.713 80.6157ZM252.495 37.08C251.087 34.5001 249.153 32.5358 246.69 31.1873C244.227 29.8387 241.354 29.1644 238.071 29.1644C234.435 29.1644 231.211 29.9853 228.396 31.627C225.582 33.2688 223.383 35.6141 221.8 38.6631C220.217 41.712 219.425 45.2301 219.425 49.2172C219.425 53.3216 220.217 56.8982 221.8 59.9472C223.442 62.9962 225.699 65.3415 228.572 66.9833C231.445 68.625 234.787 69.4459 238.598 69.4459C243.289 69.4459 247.13 68.2146 250.12 65.752C253.11 63.2307 255.075 59.742 256.013 55.2858H234.904V45.8751H268.15V56.6051C267.329 60.8853 265.57 64.8431 262.873 68.4784C260.176 72.1137 256.687 75.0454 252.407 77.2735C248.185 79.443 243.436 80.5277 238.159 80.5277C232.237 80.5277 226.872 79.2084 222.064 76.5699C217.314 73.8728 213.562 70.1495 210.806 65.4002C208.109 60.6508 206.76 55.2565 206.76 49.2172C206.76 43.1779 208.109 37.7836 210.806 33.0342C213.562 28.2262 217.314 24.503 222.064 21.8645C226.872 19.1673 232.207 17.8187 238.071 17.8187C244.99 17.8187 250.999 19.5191 256.101 22.9199C261.202 26.262 264.72 30.982 266.655 37.08H252.495Z" fill="url(#paint1_linear_41_36)"/>
<path d="M316.838 66.3676H290.101L285.175 80H276.732L298.896 19.05H308.13L330.206 80H321.763L316.838 66.3676ZM314.551 59.8592L303.469 28.9005L292.387 59.8592H314.551ZM339.514 55.7256C339.514 50.8003 340.511 46.4907 342.504 42.7968C344.498 39.0442 347.224 36.1418 350.684 34.0896C354.202 32.0374 358.101 31.0114 362.381 31.0114C366.603 31.0114 370.267 31.9202 373.375 33.7378C376.482 35.5555 378.799 37.8422 380.323 40.598V31.8029H388.414V80H380.323V71.029C378.74 73.8434 376.365 76.1888 373.199 78.0651C370.091 79.8827 366.456 80.7916 362.293 80.7916C358.013 80.7916 354.143 79.7361 350.684 77.6253C347.224 75.5145 344.498 72.5535 342.504 68.7423C340.511 64.9311 339.514 60.5922 339.514 55.7256ZM380.323 55.8135C380.323 52.1782 379.59 49.012 378.124 46.3148C376.658 43.6177 374.665 41.5655 372.144 40.1582C369.681 38.6924 366.954 37.9595 363.964 37.9595C360.974 37.9595 358.247 38.6631 355.785 40.0703C353.322 41.4775 351.358 43.5297 349.892 46.2269C348.426 48.924 347.693 52.0903 347.693 55.7256C347.693 59.4195 348.426 62.6444 349.892 65.4002C351.358 68.0973 353.322 70.1788 355.785 71.6447C358.247 73.0519 360.974 73.7555 363.964 73.7555C366.954 73.7555 369.681 73.0519 372.144 71.6447C374.665 70.1788 376.658 68.0973 378.124 65.4002C379.59 62.6444 380.323 59.4488 380.323 55.8135ZM401.588 55.7256C401.588 50.8003 402.585 46.4907 404.578 42.7968C406.572 39.0442 409.298 36.1418 412.758 34.0896C416.276 32.0374 420.204 31.0114 424.543 31.0114C428.296 31.0114 431.784 31.8909 435.009 33.6499C438.234 35.3503 440.697 37.6077 442.397 40.4221V14.9163H450.489V80H442.397V70.9411C440.814 73.8141 438.469 76.1888 435.361 78.0651C432.253 79.8827 428.618 80.7916 424.455 80.7916C420.175 80.7916 416.276 79.7361 412.758 77.6253C409.298 75.5145 406.572 72.5535 404.578 68.7423C402.585 64.9311 401.588 60.5922 401.588 55.7256ZM442.397 55.8135C442.397 52.1782 441.664 49.012 440.198 46.3148C438.732 43.6177 436.739 41.5655 434.218 40.1582C431.755 38.6924 429.029 37.9595 426.038 37.9595C423.048 37.9595 420.321 38.6631 417.859 40.0703C415.396 41.4775 413.432 43.5297 411.966 46.2269C410.5 48.924 409.767 52.0903 409.767 55.7256C409.767 59.4195 410.5 62.6444 411.966 65.4002C413.432 68.0973 415.396 70.1788 417.859 71.6447C420.321 73.0519 423.048 73.7555 426.038 73.7555C429.029 73.7555 431.755 73.0519 434.218 71.6447C436.739 70.1788 438.732 68.0973 440.198 65.4002C441.664 62.6444 442.397 59.4488 442.397 55.8135ZM490.575 30.9234C494.21 30.9234 497.494 31.715 500.425 33.2981C503.357 34.8226 505.644 37.1386 507.286 40.2462C508.986 43.3538 509.836 47.1357 509.836 51.5919V80H501.921V52.7352C501.921 47.9272 500.719 44.2626 498.315 41.7414C495.911 39.1615 492.627 37.8715 488.464 37.8715C484.242 37.8715 480.871 39.1908 478.35 41.8293C475.887 44.4678 474.656 48.3084 474.656 53.3509V80H466.652V14.9163H474.656V38.6631C476.239 36.2005 478.408 34.2949 481.164 32.9463C483.979 31.5977 487.116 30.9234 490.575 30.9234ZM522.558 55.7256C522.558 50.8003 523.555 46.4907 525.548 42.7968C527.542 39.0442 530.269 36.1418 533.728 34.0896C537.246 32.0374 541.145 31.0114 545.425 31.0114C549.647 31.0114 553.312 31.9202 556.419 33.7378C559.527 35.5555 561.843 37.8422 563.367 40.598V31.8029H571.459V80H563.367V71.029C561.784 73.8434 559.41 76.1888 556.243 78.0651C553.136 79.8827 549.5 80.7916 545.337 80.7916C541.057 80.7916 537.187 79.7361 533.728 77.6253C530.269 75.5145 527.542 72.5535 525.548 68.7423C523.555 64.9311 522.558 60.5922 522.558 55.7256ZM563.367 55.8135C563.367 52.1782 562.634 49.012 561.169 46.3148C559.703 43.6177 557.709 41.5655 555.188 40.1582C552.725 38.6924 549.999 37.9595 547.009 37.9595C544.018 37.9595 541.292 38.6631 538.829 40.0703C536.366 41.4775 534.402 43.5297 532.936 46.2269C531.471 48.924 530.738 52.0903 530.738 55.7256C530.738 59.4195 531.471 62.6444 532.936 65.4002C534.402 68.0973 536.366 70.1788 538.829 71.6447C541.292 73.0519 544.018 73.7555 547.009 73.7555C549.999 73.7555 552.725 73.0519 555.188 71.6447C557.709 70.1788 559.703 68.0973 561.169 65.4002C562.634 62.6444 563.367 59.4488 563.367 55.8135ZM595.626 39.6305C597.033 36.8747 599.027 34.7346 601.607 33.2101C604.245 31.6856 607.441 30.9234 611.193 30.9234V39.1908H609.083C600.112 39.1908 595.626 44.0574 595.626 53.7906V80H587.623V31.8029H595.626V39.6305Z" fill="black"/>
<defs>
<linearGradient id="paint0_linear_41_36" x1="45.5" y1="1" x2="45.5" y2="98" gradientUnits="userSpaceOnUse">
<stop stop-color="#CDFE64"/>
<stop offset="1" stop-color="#30CE33"/>
</linearGradient>
<linearGradient id="paint1_linear_41_36" x1="171.679" y1="19" x2="171.679" y2="80" gradientUnits="userSpaceOnUse">
<stop stop-color="#BDF95F"/>
<stop offset="1" stop-color="#34CF34"/>
</linearGradient>
</defs>
</svg>
