<svg width="998" height="532" viewBox="0 0 998 532" fill="none" xmlns="http://www.w3.org/2000/svg">
<rect width="998" height="532" fill="black"/>
<path d="M278 218C275.507 244.716 262.763 266.462 235.742 276.767C227.149 280.043 218.252 281.962 209.128 282.954C208.512 283.022 207.901 283.107 206.999 283.222C207.76 281.401 208.401 279.762 209.124 278.158C211.856 272.095 215.096 266.351 219.804 261.539C223.032 258.237 226.743 255.693 231.18 254.272C231.364 254.212 231.531 254.093 231.672 253.919C225.315 254.663 219.141 256.059 213.275 258.667C208.44 260.82 204.092 263.65 200.778 267.819C194.297 275.971 194.536 286.345 201.372 294.378C206.067 299.892 212.159 302.921 219.265 304.002C228.32 305.38 236.824 303.364 244.84 299.322C258.137 292.616 265.896 281.771 268.359 267.168C268.594 265.781 268.641 264.356 268.701 262.948C268.757 261.577 268.714 260.207 268.928 258.803C269.15 260.522 269.471 262.233 269.582 263.956C270.497 278.29 266.02 290.71 255.73 300.802C248.115 308.269 238.82 312.835 228.277 314.533C211.522 317.226 196.148 308.091 189.949 292.05C182.48 272.721 189.5 252.413 207.61 241.172C214.485 236.904 221.933 234.155 229.962 232.832C245.644 230.25 260.689 225.514 275.247 219.191C276.11 218.813 276.987 218.438 278 218Z" fill="url(#paint0_linear_38_4)"/>
<path d="M303.382 245.549V260.94H324.05V270.703H303.382V286.974H326.689V297H291.069V235.522H326.689V245.549H303.382ZM361.713 297.616C357.433 297.616 353.563 296.883 350.104 295.417C346.703 293.951 344.006 291.84 342.012 289.084C340.019 286.329 338.992 283.074 338.934 279.322H352.126C352.302 281.843 353.182 283.837 354.765 285.303C356.407 286.768 358.635 287.501 361.449 287.501C364.322 287.501 366.58 286.827 368.221 285.478C369.863 284.071 370.684 282.254 370.684 280.025C370.684 278.208 370.127 276.713 369.013 275.54C367.899 274.367 366.492 273.458 364.791 272.814C363.15 272.11 360.863 271.348 357.931 270.527C353.944 269.354 350.69 268.211 348.169 267.097C345.706 265.924 343.566 264.194 341.748 261.908C339.989 259.562 339.11 256.455 339.11 252.585C339.11 248.949 340.019 245.783 341.836 243.086C343.654 240.389 346.204 238.337 349.488 236.93C352.771 235.464 356.524 234.731 360.746 234.731C367.078 234.731 372.209 236.285 376.137 239.392C380.124 242.441 382.323 246.721 382.733 252.233H369.189C369.072 250.122 368.163 248.392 366.462 247.044C364.821 245.637 362.622 244.933 359.866 244.933C357.462 244.933 355.527 245.549 354.061 246.78C352.654 248.011 351.951 249.8 351.951 252.145C351.951 253.787 352.478 255.165 353.534 256.279C354.648 257.334 355.996 258.214 357.579 258.917C359.221 259.562 361.508 260.324 364.44 261.204C368.427 262.377 371.681 263.549 374.202 264.722C376.723 265.895 378.893 267.654 380.71 269.999C382.528 272.344 383.437 275.423 383.437 279.234C383.437 282.517 382.587 285.566 380.886 288.381C379.186 291.195 376.694 293.453 373.411 295.153C370.127 296.795 366.228 297.616 361.713 297.616ZM439.495 254.08C438.087 251.5 436.153 249.536 433.69 248.187C431.227 246.839 428.354 246.164 425.071 246.164C421.435 246.164 418.211 246.985 415.396 248.627C412.582 250.269 410.383 252.614 408.8 255.663C407.217 258.712 406.425 262.23 406.425 266.217C406.425 270.322 407.217 273.898 408.8 276.947C410.442 279.996 412.699 282.342 415.572 283.983C418.445 285.625 421.787 286.446 425.598 286.446C430.289 286.446 434.13 285.215 437.12 282.752C440.11 280.231 442.075 276.742 443.013 272.286H421.904V262.875H455.15V273.605C454.329 277.885 452.57 281.843 449.873 285.478C447.176 289.114 443.687 292.045 439.407 294.274C435.185 296.443 430.436 297.528 425.159 297.528C419.237 297.528 413.872 296.208 409.064 293.57C404.314 290.873 400.562 287.15 397.806 282.4C395.109 277.651 393.76 272.256 393.76 266.217C393.76 260.178 395.109 254.784 397.806 250.034C400.562 245.226 404.314 241.503 409.064 238.864C413.872 236.167 419.207 234.819 425.071 234.819C431.99 234.819 437.999 236.519 443.101 239.92C448.202 243.262 451.72 247.982 453.655 254.08H439.495Z" fill="url(#paint1_linear_38_4)"/>
<path d="M503.838 283.368H477.101L472.175 297H463.732L485.896 236.05H495.13L517.206 297H508.763L503.838 283.368ZM501.551 276.859L490.469 245.901L479.387 276.859H501.551ZM526.514 272.726C526.514 267.8 527.511 263.491 529.504 259.797C531.498 256.044 534.224 253.142 537.684 251.09C541.202 249.037 545.101 248.011 549.381 248.011C553.603 248.011 557.267 248.92 560.375 250.738C563.482 252.555 565.799 254.842 567.323 257.598V248.803H575.414V297H567.323V288.029C565.74 290.843 563.365 293.189 560.199 295.065C557.091 296.883 553.456 297.792 549.293 297.792C545.013 297.792 541.143 296.736 537.684 294.625C534.224 292.515 531.498 289.553 529.504 285.742C527.511 281.931 526.514 277.592 526.514 272.726ZM567.323 272.814C567.323 269.178 566.59 266.012 565.124 263.315C563.658 260.618 561.665 258.565 559.144 257.158C556.681 255.692 553.954 254.959 550.964 254.959C547.974 254.959 545.247 255.663 542.785 257.07C540.322 258.478 538.358 260.53 536.892 263.227C535.426 265.924 534.693 269.09 534.693 272.726C534.693 276.419 535.426 279.644 536.892 282.4C538.358 285.097 540.322 287.179 542.785 288.645C545.247 290.052 547.974 290.755 550.964 290.755C553.954 290.755 556.681 290.052 559.144 288.645C561.665 287.179 563.658 285.097 565.124 282.4C566.59 279.644 567.323 276.449 567.323 272.814ZM588.588 272.726C588.588 267.8 589.585 263.491 591.578 259.797C593.572 256.044 596.298 253.142 599.758 251.09C603.276 249.037 607.204 248.011 611.543 248.011C615.296 248.011 618.784 248.891 622.009 250.65C625.234 252.35 627.697 254.608 629.397 257.422V231.916H637.489V297H629.397V287.941C627.814 290.814 625.469 293.189 622.361 295.065C619.253 296.883 615.618 297.792 611.455 297.792C607.175 297.792 603.276 296.736 599.758 294.625C596.298 292.515 593.572 289.553 591.578 285.742C589.585 281.931 588.588 277.592 588.588 272.726ZM629.397 272.814C629.397 269.178 628.664 266.012 627.198 263.315C625.732 260.618 623.739 258.565 621.218 257.158C618.755 255.692 616.029 254.959 613.038 254.959C610.048 254.959 607.321 255.663 604.859 257.07C602.396 258.478 600.432 260.53 598.966 263.227C597.5 265.924 596.767 269.09 596.767 272.726C596.767 276.419 597.5 279.644 598.966 282.4C600.432 285.097 602.396 287.179 604.859 288.645C607.321 290.052 610.048 290.755 613.038 290.755C616.029 290.755 618.755 290.052 621.218 288.645C623.739 287.179 625.732 285.097 627.198 282.4C628.664 279.644 629.397 276.449 629.397 272.814ZM677.575 247.923C681.21 247.923 684.494 248.715 687.425 250.298C690.357 251.823 692.644 254.139 694.286 257.246C695.986 260.354 696.836 264.136 696.836 268.592V297H688.921V269.735C688.921 264.927 687.719 261.263 685.315 258.741C682.911 256.161 679.627 254.872 675.464 254.872C671.242 254.872 667.871 256.191 665.35 258.829C662.887 261.468 661.656 265.308 661.656 270.351V297H653.652V231.916H661.656V255.663C663.239 253.2 665.408 251.295 668.164 249.946C670.979 248.598 674.116 247.923 677.575 247.923ZM709.558 272.726C709.558 267.8 710.555 263.491 712.548 259.797C714.542 256.044 717.269 253.142 720.728 251.09C724.246 249.037 728.145 248.011 732.425 248.011C736.647 248.011 740.312 248.92 743.419 250.738C746.527 252.555 748.843 254.842 750.367 257.598V248.803H758.459V297H750.367V288.029C748.784 290.843 746.41 293.189 743.243 295.065C740.136 296.883 736.5 297.792 732.337 297.792C728.057 297.792 724.187 296.736 720.728 294.625C717.269 292.515 714.542 289.553 712.548 285.742C710.555 281.931 709.558 277.592 709.558 272.726ZM750.367 272.814C750.367 269.178 749.634 266.012 748.169 263.315C746.703 260.618 744.709 258.565 742.188 257.158C739.725 255.692 736.999 254.959 734.009 254.959C731.018 254.959 728.292 255.663 725.829 257.07C723.366 258.478 721.402 260.53 719.936 263.227C718.471 265.924 717.738 269.09 717.738 272.726C717.738 276.419 718.471 279.644 719.936 282.4C721.402 285.097 723.366 287.179 725.829 288.645C728.292 290.052 731.018 290.755 734.009 290.755C736.999 290.755 739.725 290.052 742.188 288.645C744.709 287.179 746.703 285.097 748.169 282.4C749.634 279.644 750.367 276.449 750.367 272.814ZM782.626 256.631C784.033 253.875 786.027 251.735 788.607 250.21C791.245 248.686 794.441 247.923 798.193 247.923V256.191H796.083C787.112 256.191 782.626 261.057 782.626 270.791V297H774.623V248.803H782.626V256.631Z" fill="white"/>
<defs>
<linearGradient id="paint0_linear_38_4" x1="232.5" y1="218" x2="232.5" y2="315" gradientUnits="userSpaceOnUse">
<stop stop-color="#CDFE64"/>
<stop offset="1" stop-color="#30CE33"/>
</linearGradient>
<linearGradient id="paint1_linear_38_4" x1="358.679" y1="236" x2="358.679" y2="297" gradientUnits="userSpaceOnUse">
<stop stop-color="#BDF95F"/>
<stop offset="1" stop-color="#34CF34"/>
</linearGradient>
</defs>
</svg>
