<?xml version="1.0" encoding="UTF-8" standalone="no"?>
<svg width="200" height="200" viewBox="0 0 200 200" xmlns="http://www.w3.org/2000/svg">
  <circle cx="100" cy="100" r="90" fill="none" stroke="#0A3D0A" stroke-width="10"/>
  
  <!-- Globe grid -->
  <path d="M30,100 L170,100" stroke="#0A3D0A" stroke-width="8" fill="none"/>
  <path d="M100,30 L100,170" stroke="#0A3D0A" stroke-width="8" fill="none"/>
  <ellipse cx="100" cy="100" rx="70" ry="70" fill="none" stroke="#0A3D0A" stroke-width="8"/>
  
  <!-- Leaf/plant on top -->
  <path d="M100,30 Q120,10 100,50 Q80,10 100,30" fill="#9DC183" stroke="#0A3D0A" stroke-width="3"/>
  <path d="M85,40 Q60,20 100,60 Q140,20 115,40" fill="#9DC183" stroke="#0A3D0A" stroke-width="3"/>
  
  <!-- Globe portions fill -->
  <path d="M30,100 Q65,50 100,30 L100,100 Z" fill="#9DC183" fill-opacity="0.5"/>
  <path d="M100,30 Q135,50 170,100 L100,100 Z" fill="#9DC183" fill-opacity="0.5"/>
  <path d="M30,100 Q65,150 100,170 L100,100 Z" fill="#9DC183" fill-opacity="0.5"/>
  <path d="M100,170 Q135,150 170,100 L100,100 Z" fill="#9DC183" fill-opacity="0.5"/>
</svg>
