<svg width="200" height="200" viewBox="0 0 200 200" xmlns="http://www.w3.org/2000/svg">
  <circle cx="100" cy="100" r="95" stroke="#FFFFFF" stroke-width="10" fill="none"/>
  
  <!-- Globe shape -->
  <path d="M30 130 Q100 60 170 130" fill="#C8E6C9" stroke="#FFFFFF" stroke-width="10"/>
  <line x1="100" y1="60" x2="100" y2="150" stroke="#FFFFFF" stroke-width="10"/>
  <line x1="60" y1="130" x2="140" y2="130" stroke="#FFFFFF" stroke-width="10"/>

  <!-- Leaves -->
  <path d="M100 60 C90 50, 90 30, 100 20 C110 30, 110 50, 100 60 Z" fill="#FFFFFF"/>
  <path d="M100 60 C80 50, 70 40, 60 30 C70 60, 80 70, 100 60 Z" fill="#FFFFFF"/>
  <path d="M100 60 C120 50, 130 40, 140 30 C130 60, 120 70, 100 60 Z" fill="#FFFFFF"/>
</svg>
